# xmcd
#
# Track frame offsets: 
#        150
#        14212
#        31030
#        53210
#        67990
#        83970
#        102652
#        119892
#        132362
#
# Disc length: 1985 seconds
#
# Revision: 0
# Processed by: cddbd v1.4PL0 Copyright (c) Steve Scherf et al.
# Submitted via: ExactAudioCopy v0.90b4
#
DISCID=8207bf09
DTITLE=The Black Sorrows - Radio Waves Disc Three
DYEAR=1996
DGENRE=Blues
TTITLE0=Big Time
TTITLE1=Radio Was King
TTITLE2=I Just Wanna Make Love To You
TTITLE3=Nobody Can Tell
TTITLE4=Blue Horizon
TTITLE5=Tears For The Bride
TTITLE6=Glory Bound
TTITLE7=Shape I'm In
TTITLE8=Life's Sad Parade
EXTD=
EXTT0=
EXTT1=
EXTT2=
EXTT3=
EXTT4=
EXTT5=
EXTT6=
EXTT7=
EXTT8=
PLAYORDER=
